{"asset":{"version":"2.0","generator":"THREE.GLTFExporter"},"scenes":[{"nodes":[0],"name":"AuxScene"}],"scene":0,"nodes":[{"mesh":0}],"bufferViews":[{"buffer":0,"byteOffset":0,"byteLength":128232,"target":34962,"byteStride":12},{"buffer":0,"byteOffset":128232,"byteLength":128232,"target":34962,"byteStride":12}],"buffers":[{"byteLength":256464,"uri":"data:application/octet-stream;base64,"}],"accessors":[{"bufferView":0,"componentType":5126,"count":10686,"max":[100.61190795898438,17.595970153808594,100.61190795898438],"min":[-100.78809356689453,0.5959699749946594,-100.78809356689453],"type":"VEC3"},{"bufferView":1,"componentType":5126,"count":10686,"max":[0.9949303269386292,1,0.9979044795036316],"min":[-0.9880174398422241,0.006446234416216612,-0.99569171667099],"type":"VEC3"}],"materials":[{"pbrMetallicRoughness":{"baseColorFactor":[0.5019607843137255,0.5019607843137255,0.5019607843137255,1],"metallicFactor":0,"roughnessFactor":1}}],"meshes":[{"primitives":[{"mode":4,"attributes":{"POSITION":0,"NORMAL":1},"material":0}]}]}